<mxfile host="app.diagrams.net" modified="2023-08-04T07:12:23.385Z" agent="Mozilla/5.0 (X11; Linux x86_64; rv:109.0) Gecko/20100101 Firefox/115.0" etag="oi79KLlWEAMsBxCERcTg" version="21.6.6" type="github">
  <diagram name="Page-1" id="4ZCYVXNfwt_bql2Io-Zv">
    <mxGraphModel dx="1434" dy="778" grid="1" gridSize="10" guides="1" tooltips="1" connect="1" arrows="1" fold="1" page="1" pageScale="1" pageWidth="850" pageHeight="1100" math="0" shadow="0">
      <root>
        <mxCell id="0" />
        <mxCell id="1" parent="0" />
        <mxCell id="H8CEIzqAk9dEc6fAlXC8-1" value="&lt;div align=&quot;right&quot;&gt;&lt;br&gt;&lt;/div&gt;" style="shape=image;html=1;verticalAlign=top;verticalLabelPosition=bottom;labelBackgroundColor=#ffffff;imageAspect=0;aspect=fixed;image=https://cdn1.iconfinder.com/data/icons/electronics-glyph-24/24/refrigerator_electronics_freezer_fridge_household_appliance-128.png" parent="1" vertex="1">
          <mxGeometry x="64.5" y="20" width="70" height="70" as="geometry" />
        </mxCell>
        <mxCell id="H8CEIzqAk9dEc6fAlXC8-2" value="" style="shape=image;html=1;verticalAlign=top;verticalLabelPosition=bottom;labelBackgroundColor=#ffffff;imageAspect=0;aspect=fixed;image=https://cdn1.iconfinder.com/data/icons/unicons-line-vol-5/24/robot-128.png" parent="1" vertex="1">
          <mxGeometry x="68.25" y="100" width="72" height="72" as="geometry" />
        </mxCell>
        <mxCell id="H8CEIzqAk9dEc6fAlXC8-6" value="" style="shape=mxgraph.signs.food.food_truck;html=1;pointerEvents=1;fillColor=#000000;strokeColor=none;verticalLabelPosition=bottom;verticalAlign=top;align=center;" parent="1" vertex="1">
          <mxGeometry x="71.5" y="200" width="100" height="50" as="geometry" />
        </mxCell>
        <mxCell id="H8CEIzqAk9dEc6fAlXC8-8" value="" style="shape=mxgraph.signs.people.man_2;html=1;pointerEvents=1;fillColor=#000000;strokeColor=none;verticalLabelPosition=bottom;verticalAlign=top;align=center;" parent="1" vertex="1">
          <mxGeometry x="88.51" y="280" width="31.49" height="80" as="geometry" />
        </mxCell>
        <mxCell id="H8CEIzqAk9dEc6fAlXC8-12" value="&lt;div&gt;possibili &lt;br&gt;&lt;/div&gt;&lt;div&gt;icone da usare.&lt;/div&gt;&lt;div&gt;&lt;br&gt;&lt;/div&gt;&lt;div&gt;Si possono anche&lt;/div&gt;&lt;div&gt;importare immagini&lt;/div&gt;&lt;div&gt;e/o diagrammi fatti&lt;/div&gt;&lt;div&gt;con excalidraw&lt;br&gt;&lt;/div&gt;" style="shape=note;whiteSpace=wrap;html=1;backgroundOutline=1;fontColor=#000000;darkOpacity=0.05;fillColor=#FFF9B2;strokeColor=none;fillStyle=solid;direction=west;gradientDirection=north;gradientColor=#FFF2A1;shadow=1;size=20;pointerEvents=1;" parent="1" vertex="1">
          <mxGeometry x="690" y="470" width="140" height="160" as="geometry" />
        </mxCell>
        <mxCell id="JL-kAtFbKdr1hkxPQA-j-2" value="" style="verticalLabelPosition=bottom;verticalAlign=top;html=1;shape=mxgraph.basic.x;fillColor=#FF0000;strokeColor=#FF0000;fillStyle=solid;" vertex="1" parent="1">
          <mxGeometry x="440" y="25" width="51" height="60" as="geometry" />
        </mxCell>
        <mxCell id="JL-kAtFbKdr1hkxPQA-j-3" value="" style="shape=image;html=1;verticalAlign=top;verticalLabelPosition=bottom;labelBackgroundColor=#ffffff;imageAspect=0;aspect=fixed;image=https://cdn3.iconfinder.com/data/icons/flat-actions-icons-9/512/Tick_Mark-128.png" vertex="1" parent="1">
          <mxGeometry x="435.5" y="106" width="60" height="60" as="geometry" />
        </mxCell>
        <mxCell id="JL-kAtFbKdr1hkxPQA-j-10" value="" style="html=1;verticalLabelPosition=bottom;align=center;labelBackgroundColor=#ffffff;verticalAlign=top;strokeWidth=2;strokeColor=#000000;shadow=0;dashed=0;shape=mxgraph.ios7.icons.play;fillColor=#000000;" vertex="1" parent="1">
          <mxGeometry x="440" y="190" width="50" height="60" as="geometry" />
        </mxCell>
        <mxCell id="JL-kAtFbKdr1hkxPQA-j-11" value="" style="html=1;verticalLabelPosition=bottom;align=center;labelBackgroundColor=#ffffff;verticalAlign=top;strokeWidth=2;strokeColor=#000000;shadow=0;dashed=0;shape=mxgraph.ios7.icons.pause;pointerEvents=1;fillColor=#000000;" vertex="1" parent="1">
          <mxGeometry x="440" y="280" width="48.75" height="60" as="geometry" />
        </mxCell>
        <mxCell id="JL-kAtFbKdr1hkxPQA-j-17" value="" style="shape=image;html=1;verticalAlign=top;verticalLabelPosition=bottom;labelBackgroundColor=#ffffff;imageAspect=0;aspect=fixed;image=https://cdn2.iconfinder.com/data/icons/essential-web-1-1/50/hourlass-waiting-time-delay-minute-128.png;imageBackground=none;" vertex="1" parent="1">
          <mxGeometry x="430.5" y="360" width="70" height="70" as="geometry" />
        </mxCell>
        <mxCell id="JL-kAtFbKdr1hkxPQA-j-29" value="&lt;pre style=&quot;font-size: 15px;&quot;&gt;&lt;font style=&quot;font-size: 15px;&quot;&gt;&lt;b&gt;ColdRoom&lt;/b&gt;&lt;br&gt;&lt;/font&gt;&lt;/pre&gt;" style="text;html=1;strokeColor=none;fillColor=none;align=center;verticalAlign=middle;whiteSpace=wrap;rounded=0;" vertex="1" parent="1">
          <mxGeometry x="220" y="40" width="140" height="30" as="geometry" />
        </mxCell>
        <mxCell id="JL-kAtFbKdr1hkxPQA-j-30" value="&lt;b&gt;&lt;font style=&quot;font-size: 15px;&quot;&gt;TransportTrolley&lt;/font&gt;&lt;/b&gt;" style="text;html=1;strokeColor=none;fillColor=none;align=center;verticalAlign=middle;whiteSpace=wrap;rounded=0;" vertex="1" parent="1">
          <mxGeometry x="220" y="130" width="140" height="30" as="geometry" />
        </mxCell>
        <mxCell id="JL-kAtFbKdr1hkxPQA-j-31" value="&lt;font size=&quot;1&quot;&gt;&lt;b style=&quot;font-size: 15px;&quot;&gt;FridgeTruck&lt;/b&gt;&lt;/font&gt;" style="text;html=1;strokeColor=none;fillColor=none;align=center;verticalAlign=middle;whiteSpace=wrap;rounded=0;" vertex="1" parent="1">
          <mxGeometry x="220" y="210" width="140" height="30" as="geometry" />
        </mxCell>
        <mxCell id="JL-kAtFbKdr1hkxPQA-j-32" value="&lt;font size=&quot;1&quot;&gt;&lt;b style=&quot;font-size: 15px;&quot;&gt;Service-manager&lt;/b&gt;&lt;/font&gt;" style="text;html=1;strokeColor=none;fillColor=none;align=center;verticalAlign=middle;whiteSpace=wrap;rounded=0;" vertex="1" parent="1">
          <mxGeometry x="220" y="305" width="140" height="30" as="geometry" />
        </mxCell>
        <mxCell id="JL-kAtFbKdr1hkxPQA-j-33" value="&lt;b style=&quot;font-size: 15px;&quot;&gt;Request Rejected&lt;br&gt;&lt;/b&gt;" style="text;html=1;strokeColor=none;fillColor=none;align=center;verticalAlign=middle;whiteSpace=wrap;rounded=0;" vertex="1" parent="1">
          <mxGeometry x="640" y="40" width="140" height="30" as="geometry" />
        </mxCell>
        <mxCell id="JL-kAtFbKdr1hkxPQA-j-34" value="&lt;font style=&quot;font-size: 15px;&quot;&gt;&lt;b&gt;Request Accepted&lt;br&gt;&lt;/b&gt;&lt;/font&gt;" style="text;html=1;strokeColor=none;fillColor=none;align=center;verticalAlign=middle;whiteSpace=wrap;rounded=0;" vertex="1" parent="1">
          <mxGeometry x="640" y="121" width="140" height="30" as="geometry" />
        </mxCell>
        <mxCell id="JL-kAtFbKdr1hkxPQA-j-35" value="&lt;font size=&quot;1&quot;&gt;&lt;b style=&quot;font-size: 15px;&quot;&gt;Running&lt;/b&gt;&lt;/font&gt;" style="text;html=1;strokeColor=none;fillColor=none;align=center;verticalAlign=middle;whiteSpace=wrap;rounded=0;" vertex="1" parent="1">
          <mxGeometry x="640" y="205" width="140" height="30" as="geometry" />
        </mxCell>
        <mxCell id="JL-kAtFbKdr1hkxPQA-j-36" value="&lt;font size=&quot;1&quot;&gt;&lt;b style=&quot;font-size: 15px;&quot;&gt;Pause&lt;/b&gt;&lt;/font&gt;" style="text;html=1;strokeColor=none;fillColor=none;align=center;verticalAlign=middle;whiteSpace=wrap;rounded=0;" vertex="1" parent="1">
          <mxGeometry x="640" y="295" width="140" height="30" as="geometry" />
        </mxCell>
        <mxCell id="JL-kAtFbKdr1hkxPQA-j-37" value="&lt;font size=&quot;1&quot;&gt;&lt;b style=&quot;font-size: 15px;&quot;&gt;Waiting&lt;/b&gt;&lt;/font&gt;" style="text;html=1;strokeColor=none;fillColor=none;align=center;verticalAlign=middle;whiteSpace=wrap;rounded=0;" vertex="1" parent="1">
          <mxGeometry x="640" y="380" width="140" height="30" as="geometry" />
        </mxCell>
      </root>
    </mxGraphModel>
  </diagram>
</mxfile>
